<mxfile host="app.diagrams.net" agent="Mozilla/5.0 (Windows NT 10.0; Win64; x64) AppleWebKit/537.36 (KHTML, like Gecko) Chrome/135.0.0.0 Safari/537.36" version="26.2.14">
  <diagram name="Page-1" id="c37626ed-c26b-45fb-9056-f9ebc6bb27b6">
    <mxGraphModel dx="3565" dy="1878" grid="1" gridSize="10" guides="1" tooltips="1" connect="1" arrows="1" fold="1" page="1" pageScale="1" pageWidth="1100" pageHeight="850" background="none" math="0" shadow="0">
      <root>
        <mxCell id="0" />
        <mxCell id="1" parent="0" />
        <mxCell id="7zI4aaA8HdaOtIRO0uoj-1" value="&lt;font style=&quot;font-size: 25px;&quot;&gt;Essendon Field Branch Wi-Fi Design&lt;/font&gt;" style="text;html=1;align=center;verticalAlign=middle;whiteSpace=wrap;rounded=0;" vertex="1" parent="1">
          <mxGeometry x="1441.5" y="10" width="495" height="30" as="geometry" />
        </mxCell>
        <mxCell id="7zI4aaA8HdaOtIRO0uoj-3" value="WiFi Coverage" style="whiteSpace=wrap;strokeWidth=2;" vertex="1" parent="1">
          <mxGeometry x="1608" y="180" width="162" height="54" as="geometry" />
        </mxCell>
        <mxCell id="7zI4aaA8HdaOtIRO0uoj-4" value="Office-wide Access Points" style="whiteSpace=wrap;strokeWidth=2;" vertex="1" parent="1">
          <mxGeometry x="694" y="304" width="242" height="54" as="geometry" />
        </mxCell>
        <mxCell id="7zI4aaA8HdaOtIRO0uoj-5" value="SSID Segmentation" style="whiteSpace=wrap;strokeWidth=2;" vertex="1" parent="1">
          <mxGeometry x="2548" y="304" width="193" height="54" as="geometry" />
        </mxCell>
        <mxCell id="7zI4aaA8HdaOtIRO0uoj-6" value="Access Point 1" style="whiteSpace=wrap;strokeWidth=2;" vertex="1" parent="1">
          <mxGeometry x="200" y="408" width="161" height="54" as="geometry" />
        </mxCell>
        <mxCell id="7zI4aaA8HdaOtIRO0uoj-7" value="Access Point 2" style="whiteSpace=wrap;strokeWidth=2;" vertex="1" parent="1">
          <mxGeometry x="735" y="408" width="161" height="54" as="geometry" />
        </mxCell>
        <mxCell id="7zI4aaA8HdaOtIRO0uoj-8" value="Access Point 3" style="whiteSpace=wrap;strokeWidth=2;" vertex="1" parent="1">
          <mxGeometry x="1265" y="408" width="161" height="54" as="geometry" />
        </mxCell>
        <mxCell id="7zI4aaA8HdaOtIRO0uoj-9" value="Location: Conference Room" style="whiteSpace=wrap;strokeWidth=2;" vertex="1" parent="1">
          <mxGeometry x="8" y="524" width="258" height="54" as="geometry" />
        </mxCell>
        <mxCell id="7zI4aaA8HdaOtIRO0uoj-10" value="Location: Office area 1" style="whiteSpace=wrap;strokeWidth=2;" vertex="1" parent="1">
          <mxGeometry x="316" y="524" width="216" height="54" as="geometry" />
        </mxCell>
        <mxCell id="7zI4aaA8HdaOtIRO0uoj-11" value="Location: Reception" style="whiteSpace=wrap;strokeWidth=2;" vertex="1" parent="1">
          <mxGeometry x="582" y="524" width="203" height="54" as="geometry" />
        </mxCell>
        <mxCell id="7zI4aaA8HdaOtIRO0uoj-12" value="Location: Workstations" style="whiteSpace=wrap;strokeWidth=2;" vertex="1" parent="1">
          <mxGeometry x="835" y="524" width="224" height="54" as="geometry" />
        </mxCell>
        <mxCell id="7zI4aaA8HdaOtIRO0uoj-13" value="Location: Cafeteria" style="whiteSpace=wrap;strokeWidth=2;" vertex="1" parent="1">
          <mxGeometry x="1109" y="524" width="199" height="54" as="geometry" />
        </mxCell>
        <mxCell id="7zI4aaA8HdaOtIRO0uoj-14" value="Location: Manager&#39;s Office" style="whiteSpace=wrap;strokeWidth=2;" vertex="1" parent="1">
          <mxGeometry x="1358" y="524" width="250" height="54" as="geometry" />
        </mxCell>
        <mxCell id="7zI4aaA8HdaOtIRO0uoj-15" value="SSID 1: Corporate" style="whiteSpace=wrap;strokeWidth=2;" vertex="1" parent="1">
          <mxGeometry x="2293" y="408" width="185" height="54" as="geometry" />
        </mxCell>
        <mxCell id="7zI4aaA8HdaOtIRO0uoj-16" value="SSID 2: Guests" style="whiteSpace=wrap;strokeWidth=2;" vertex="1" parent="1">
          <mxGeometry x="2564" y="408" width="161" height="54" as="geometry" />
        </mxCell>
        <mxCell id="7zI4aaA8HdaOtIRO0uoj-17" value="SSID 3: IoT Devices" style="whiteSpace=wrap;strokeWidth=2;" vertex="1" parent="1">
          <mxGeometry x="2822" y="408" width="194" height="54" as="geometry" />
        </mxCell>
        <mxCell id="7zI4aaA8HdaOtIRO0uoj-18" value="Access: Employees Only" style="whiteSpace=wrap;strokeWidth=2;" vertex="1" parent="1">
          <mxGeometry x="2270" y="524" width="231" height="54" as="geometry" />
        </mxCell>
        <mxCell id="7zI4aaA8HdaOtIRO0uoj-19" value="Access: All Guests" style="whiteSpace=wrap;strokeWidth=2;" vertex="1" parent="1">
          <mxGeometry x="2551" y="524" width="188" height="54" as="geometry" />
        </mxCell>
        <mxCell id="7zI4aaA8HdaOtIRO0uoj-20" value="Access: Restricted IoT Access" style="whiteSpace=wrap;strokeWidth=2;" vertex="1" parent="1">
          <mxGeometry x="2789" y="512" width="260" height="78" as="geometry" />
        </mxCell>
        <mxCell id="7zI4aaA8HdaOtIRO0uoj-21" value="" style="curved=1;startArrow=none;endArrow=block;exitX=0;exitY=0.64;entryX=0.5;entryY=0;" edge="1" parent="1" source="7zI4aaA8HdaOtIRO0uoj-3" target="7zI4aaA8HdaOtIRO0uoj-4">
          <mxGeometry relative="1" as="geometry">
            <Array as="points">
              <mxPoint x="815" y="279" />
            </Array>
          </mxGeometry>
        </mxCell>
        <mxCell id="7zI4aaA8HdaOtIRO0uoj-22" value="" style="curved=1;startArrow=none;endArrow=block;exitX=1;exitY=0.62;entryX=0.5;entryY=0;" edge="1" parent="1" source="7zI4aaA8HdaOtIRO0uoj-3" target="7zI4aaA8HdaOtIRO0uoj-5">
          <mxGeometry relative="1" as="geometry">
            <Array as="points">
              <mxPoint x="2140" y="180" />
            </Array>
          </mxGeometry>
        </mxCell>
        <mxCell id="7zI4aaA8HdaOtIRO0uoj-46" value="Text" style="edgeLabel;html=1;align=center;verticalAlign=middle;resizable=0;points=[];" vertex="1" connectable="0" parent="7zI4aaA8HdaOtIRO0uoj-22">
          <mxGeometry x="-0.2745" y="7" relative="1" as="geometry">
            <mxPoint as="offset" />
          </mxGeometry>
        </mxCell>
        <mxCell id="7zI4aaA8HdaOtIRO0uoj-23" value="" style="curved=1;startArrow=none;endArrow=block;exitX=0;exitY=0.72;entryX=0.5;entryY=0;" edge="1" parent="1" source="7zI4aaA8HdaOtIRO0uoj-4" target="7zI4aaA8HdaOtIRO0uoj-6">
          <mxGeometry relative="1" as="geometry">
            <Array as="points">
              <mxPoint x="280" y="383" />
            </Array>
          </mxGeometry>
        </mxCell>
        <mxCell id="7zI4aaA8HdaOtIRO0uoj-24" value="" style="curved=1;startArrow=none;endArrow=block;exitX=0.5;exitY=1;entryX=0.5;entryY=0;" edge="1" parent="1" source="7zI4aaA8HdaOtIRO0uoj-4" target="7zI4aaA8HdaOtIRO0uoj-7">
          <mxGeometry relative="1" as="geometry">
            <Array as="points" />
          </mxGeometry>
        </mxCell>
        <mxCell id="7zI4aaA8HdaOtIRO0uoj-25" value="" style="curved=1;startArrow=none;endArrow=block;exitX=1;exitY=0.72;entryX=0.5;entryY=0;" edge="1" parent="1" source="7zI4aaA8HdaOtIRO0uoj-4" target="7zI4aaA8HdaOtIRO0uoj-8">
          <mxGeometry relative="1" as="geometry">
            <Array as="points">
              <mxPoint x="1345" y="383" />
            </Array>
          </mxGeometry>
        </mxCell>
        <mxCell id="7zI4aaA8HdaOtIRO0uoj-26" value="" style="curved=1;startArrow=none;endArrow=block;exitX=0.04;exitY=1;entryX=0.5;entryY=0;" edge="1" parent="1" source="7zI4aaA8HdaOtIRO0uoj-6" target="7zI4aaA8HdaOtIRO0uoj-9">
          <mxGeometry relative="1" as="geometry">
            <Array as="points">
              <mxPoint x="137" y="487" />
            </Array>
          </mxGeometry>
        </mxCell>
        <mxCell id="7zI4aaA8HdaOtIRO0uoj-27" value="" style="curved=1;startArrow=none;endArrow=block;exitX=0.96;exitY=1;entryX=0.5;entryY=0;" edge="1" parent="1" source="7zI4aaA8HdaOtIRO0uoj-6" target="7zI4aaA8HdaOtIRO0uoj-10">
          <mxGeometry relative="1" as="geometry">
            <Array as="points">
              <mxPoint x="424" y="487" />
            </Array>
          </mxGeometry>
        </mxCell>
        <mxCell id="7zI4aaA8HdaOtIRO0uoj-28" value="" style="curved=1;startArrow=none;endArrow=block;exitX=0.07;exitY=1;entryX=0.5;entryY=0;" edge="1" parent="1" source="7zI4aaA8HdaOtIRO0uoj-7" target="7zI4aaA8HdaOtIRO0uoj-11">
          <mxGeometry relative="1" as="geometry">
            <Array as="points">
              <mxPoint x="684" y="487" />
            </Array>
          </mxGeometry>
        </mxCell>
        <mxCell id="7zI4aaA8HdaOtIRO0uoj-29" value="" style="curved=1;startArrow=none;endArrow=block;exitX=0.92;exitY=1;entryX=0.5;entryY=0;" edge="1" parent="1" source="7zI4aaA8HdaOtIRO0uoj-7" target="7zI4aaA8HdaOtIRO0uoj-12">
          <mxGeometry relative="1" as="geometry">
            <Array as="points">
              <mxPoint x="947" y="487" />
            </Array>
          </mxGeometry>
        </mxCell>
        <mxCell id="7zI4aaA8HdaOtIRO0uoj-30" value="" style="curved=1;startArrow=none;endArrow=block;exitX=0.06;exitY=1;entryX=0.5;entryY=0;" edge="1" parent="1" source="7zI4aaA8HdaOtIRO0uoj-8" target="7zI4aaA8HdaOtIRO0uoj-13">
          <mxGeometry relative="1" as="geometry">
            <Array as="points">
              <mxPoint x="1208" y="487" />
            </Array>
          </mxGeometry>
        </mxCell>
        <mxCell id="7zI4aaA8HdaOtIRO0uoj-31" value="" style="curved=1;startArrow=none;endArrow=block;exitX=0.94;exitY=1;entryX=0.5;entryY=0;" edge="1" parent="1" source="7zI4aaA8HdaOtIRO0uoj-8" target="7zI4aaA8HdaOtIRO0uoj-14">
          <mxGeometry relative="1" as="geometry">
            <Array as="points">
              <mxPoint x="1483" y="487" />
            </Array>
          </mxGeometry>
        </mxCell>
        <mxCell id="7zI4aaA8HdaOtIRO0uoj-32" value="" style="curved=1;startArrow=none;endArrow=block;exitX=0;exitY=0.86;entryX=0.5;entryY=0;" edge="1" parent="1" source="7zI4aaA8HdaOtIRO0uoj-5" target="7zI4aaA8HdaOtIRO0uoj-15">
          <mxGeometry relative="1" as="geometry">
            <Array as="points">
              <mxPoint x="2386" y="383" />
            </Array>
          </mxGeometry>
        </mxCell>
        <mxCell id="7zI4aaA8HdaOtIRO0uoj-33" value="" style="curved=1;startArrow=none;endArrow=block;exitX=0.5;exitY=1;entryX=0.5;entryY=0;" edge="1" parent="1" source="7zI4aaA8HdaOtIRO0uoj-5" target="7zI4aaA8HdaOtIRO0uoj-16">
          <mxGeometry relative="1" as="geometry">
            <Array as="points" />
          </mxGeometry>
        </mxCell>
        <mxCell id="7zI4aaA8HdaOtIRO0uoj-34" value="" style="curved=1;startArrow=none;endArrow=block;exitX=1;exitY=0.84;entryX=0.5;entryY=0;" edge="1" parent="1" source="7zI4aaA8HdaOtIRO0uoj-5" target="7zI4aaA8HdaOtIRO0uoj-17">
          <mxGeometry relative="1" as="geometry">
            <Array as="points">
              <mxPoint x="2919" y="383" />
            </Array>
          </mxGeometry>
        </mxCell>
        <mxCell id="7zI4aaA8HdaOtIRO0uoj-35" value="" style="curved=1;startArrow=none;endArrow=block;exitX=0.5;exitY=1;entryX=0.5;entryY=0;" edge="1" parent="1" source="7zI4aaA8HdaOtIRO0uoj-15" target="7zI4aaA8HdaOtIRO0uoj-18">
          <mxGeometry relative="1" as="geometry">
            <Array as="points" />
          </mxGeometry>
        </mxCell>
        <mxCell id="7zI4aaA8HdaOtIRO0uoj-36" value="" style="curved=1;startArrow=none;endArrow=block;exitX=0.5;exitY=1;entryX=0.5;entryY=0;" edge="1" parent="1" source="7zI4aaA8HdaOtIRO0uoj-16" target="7zI4aaA8HdaOtIRO0uoj-19">
          <mxGeometry relative="1" as="geometry">
            <Array as="points" />
          </mxGeometry>
        </mxCell>
        <mxCell id="7zI4aaA8HdaOtIRO0uoj-37" value="" style="curved=1;startArrow=none;endArrow=block;exitX=0.5;exitY=1;entryX=0.5;entryY=0;" edge="1" parent="1" source="7zI4aaA8HdaOtIRO0uoj-17" target="7zI4aaA8HdaOtIRO0uoj-20">
          <mxGeometry relative="1" as="geometry">
            <Array as="points" />
          </mxGeometry>
        </mxCell>
        <mxCell id="7zI4aaA8HdaOtIRO0uoj-38" value="Access Point 4" style="whiteSpace=wrap;strokeWidth=2;" vertex="1" parent="1">
          <mxGeometry x="1846" y="400" width="161" height="54" as="geometry" />
        </mxCell>
        <mxCell id="7zI4aaA8HdaOtIRO0uoj-39" value="Location: office area 2" style="whiteSpace=wrap;strokeWidth=2;" vertex="1" parent="1">
          <mxGeometry x="1690" y="516" width="199" height="54" as="geometry" />
        </mxCell>
        <mxCell id="7zI4aaA8HdaOtIRO0uoj-40" value="Location: Break room" style="whiteSpace=wrap;strokeWidth=2;" vertex="1" parent="1">
          <mxGeometry x="1939" y="516" width="250" height="54" as="geometry" />
        </mxCell>
        <mxCell id="7zI4aaA8HdaOtIRO0uoj-41" value="" style="curved=1;startArrow=none;endArrow=block;exitX=0.06;exitY=1;entryX=0.5;entryY=0;" edge="1" parent="1" source="7zI4aaA8HdaOtIRO0uoj-38" target="7zI4aaA8HdaOtIRO0uoj-39">
          <mxGeometry relative="1" as="geometry">
            <Array as="points">
              <mxPoint x="1789" y="479" />
            </Array>
          </mxGeometry>
        </mxCell>
        <mxCell id="7zI4aaA8HdaOtIRO0uoj-42" value="" style="curved=1;startArrow=none;endArrow=block;exitX=0.94;exitY=1;entryX=0.5;entryY=0;" edge="1" parent="1" source="7zI4aaA8HdaOtIRO0uoj-38" target="7zI4aaA8HdaOtIRO0uoj-40">
          <mxGeometry relative="1" as="geometry">
            <Array as="points">
              <mxPoint x="2064" y="479" />
            </Array>
          </mxGeometry>
        </mxCell>
        <mxCell id="7zI4aaA8HdaOtIRO0uoj-45" value="" style="curved=1;startArrow=none;endArrow=block;exitX=1;exitY=0.5;entryX=0.5;entryY=0;entryDx=0;entryDy=0;exitDx=0;exitDy=0;" edge="1" parent="1" source="7zI4aaA8HdaOtIRO0uoj-4" target="7zI4aaA8HdaOtIRO0uoj-38">
          <mxGeometry relative="1" as="geometry">
            <Array as="points">
              <mxPoint x="1210" y="310" />
              <mxPoint x="1430" y="320" />
              <mxPoint x="1760" y="320" />
            </Array>
            <mxPoint x="936" y="331" as="sourcePoint" />
            <mxPoint x="1927" y="400" as="targetPoint" />
          </mxGeometry>
        </mxCell>
      </root>
    </mxGraphModel>
  </diagram>
</mxfile>
